# xmcd
#
# Track frame offsets:
#       150
#       19689
#       38845
#       56201
#       71435
#       98445
#       118896
#       141779
#       165100
#       189828
#       211841
#       241794
#
# Disc length: 3501 seconds
#
# Revision: 0
# Processed by: cddbd v1.5.2PL0 Copyright (c) Steve Scherf et al.
# Submitted via: WhereIsIt 3.68
#
DISCID=930dab0c
DTITLE=Воскресение - Не торпясь везде Live [CD1]
DYEAR=2003
DGENRE=Russian Rock
TTITLE0=Поезд
TTITLE1=Листопад
TTITLE2=Последняя любовь
TTITLE3=Делай свое дело
TTITLE4=Когда ты уйдешь
TTITLE5=Случилось
TTITLE6=Спешит моя радость
TTITLE7=Сон
TTITLE8=По дороге разочарований
TTITLE9=Не торопясь
TTITLE10=Есть у меня
TTITLE11=Data
EXTD=
EXTT0=
EXTT1=
EXTT2=
EXTT3=
EXTT4=
EXTT5=
EXTT6=
EXTT7=
EXTT8=
EXTT9=
EXTT10=
EXTT11=
PLAYORDER=
